<svg width="48" height="48" viewBox="0 0 48 48" xmlns="http://www.w3.org/2000/svg">
  <defs>
    <linearGradient id="gradient" x1="0%" y1="0%" x2="100%" y2="100%">
      <stop offset="0%" style="stop-color:#00ff88;stop-opacity:1" />
      <stop offset="100%" style="stop-color:#00cc6a;stop-opacity:1" />
    </linearGradient>
  </defs>
  
  <!-- Fundo circular -->
  <circle cx="24" cy="24" r="23" fill="url(#gradient)" />
  
  <!-- Ícone do WhatsApp simplificado -->
  <g fill="white" transform="translate(7.199999999999999, 7.199999999999999) scale(1.2000000000000002)">
    <!-- Telefone -->
    <path d="M12 2C6.48 2 2 6.48 2 12s4.48 10 10 10c1.54 0 3-.35 4.31-.99L22 22l-1.01-5.69C21.65 15 22 13.54 22 12c0-5.52-4.48-10-10-10zm0 18c-4.41 0-8-3.59-8-8s3.59-8 8-8 8 3.59 8 8-3.59 8-8 8z"/>
    <!-- Chat bubble -->
    <path d="M8.5 11.5c0-1.1.9-2 2-2s2 .9 2 2-.9 2-2 2-2-.9-2-2zm4 0c0-1.1.9-2 2-2s2 .9 2 2-.9 2-2 2-2-.9-2-2z"/>
  </g>
  
  <!-- Pequeno indicador de automação -->
  <circle cx="38.400000000000006" cy="9.600000000000001" r="5.76" fill="#fff" opacity="0.9"/>
  <text x="38.400000000000006" y="12" text-anchor="middle" fill="#00cc6a" font-size="7.199999999999999" font-weight="bold">A</text>
</svg>