<svg width="128" height="128" viewBox="0 0 128 128" xmlns="http://www.w3.org/2000/svg">
  <defs>
    <linearGradient id="bg" x1="0%" y1="0%" x2="100%" y2="100%">
      <stop offset="0%" style="stop-color:#4299e1;stop-opacity:1" />
      <stop offset="100%" style="stop-color:#3182ce;stop-opacity:1" />
    </linearGradient>
  </defs>
  <rect width="128" height="128" rx="20" fill="url(#bg)"/>
  
  <!-- Column 1 -->
  <rect x="20" y="30" width="25" height="70" rx="4" fill="white" opacity="0.9"/>
  <rect x="23" y="35" width="19" height="3" rx="1" fill="#4299e1"/>
  <rect x="23" y="42" width="15" height="2" rx="1" fill="#4299e1" opacity="0.7"/>
  <rect x="23" y="47" width="17" height="2" rx="1" fill="#4299e1" opacity="0.7"/>
  
  <!-- Column 2 -->
  <rect x="52" y="30" width="25" height="70" rx="4" fill="white" opacity="0.9"/>
  <rect x="55" y="35" width="19" height="3" rx="1" fill="#4299e1"/>
  <rect x="55" y="42" width="13" height="2" rx="1" fill="#4299e1" opacity="0.7"/>
  <rect x="55" y="47" width="16" height="2" rx="1" fill="#4299e1" opacity="0.7"/>
  <rect x="55" y="52" width="12" height="2" rx="1" fill="#4299e1" opacity="0.7"/>
  
  <!-- Column 3 -->
  <rect x="84" y="30" width="25" height="70" rx="4" fill="white" opacity="0.9"/>
  <rect x="87" y="35" width="19" height="3" rx="1" fill="#4299e1"/>
  <rect x="87" y="42" width="14" height="2" rx="1" fill="#4299e1" opacity="0.7"/>
  
  <!-- Check mark -->
  <circle cx="96" cy="80" r="8" fill="#48bb78"/>
  <path d="M92 80 L95 83 L100 78" stroke="white" stroke-width="2" fill="none" stroke-linecap="round"/>
</svg>